# xmcd CD database file
#
# Track frame offsets:
#	150
#	10149
#	21235
#	35383
#	48339
#	60862
#	71626
#	83776
#	93485
#	105424
#	117153
#	129787
#	152994
#	164441
#	175194
#	186952
#	196673
#	206544
#	218182
#	228058
#	239778
#	253133
#	267535
#
# Disc length: 3715 seconds
#
# Revision: 0
# Processed by: cddbd v1.5.2PL0 Copyright (c) Steve Scherf et al.
# Submitted via: CDex 1.51
#
DISCID=370e8117
DTITLE=Skeeter Davis - Mixed
DYEAR=1900
DGENRE=Country
TTITLE0=AM I THAT EASY TO FORGET by SKEETER DAVIS - AM I THAT EASY TO FORGET by SKEETER DAVIS
TTITLE1=Bobby Bare - Skeeter Davis - We'll Sing In The Sunshine
TTITLE2=I Forgot More Than You'll Ever Know by Skeeter Davis - I Forgot More Than You'll Ever Know by Skeeter Davis
TTITLE3=Skeeter Davis - Amazing Grace
TTITLE4=Skeeter Davis - Child Of The King
TTITLE5=Skeeter Davis - Gonna Get Along Without You Now
TTITLE6=Skeeter Davis - Hand in Hand with Jesus
TTITLE7=Skeeter Davis - I Can't Stay Mad At You (Original Stereo)
TTITLE8=Skeeter Davis - I Will
TTITLE9=Skeeter Davis - I'll Meet You In The Morning
TTITLE10=Skeeter Davis - Just When I Needed You
TTITLE11=Skeeter Davis - Loving Him Was Easier
TTITLE12=Skeeter Davis - My Happiness
TTITLE13=Skeeter Davis - My Heart Skips A Beat
TTITLE14=Skeeter Davis  My Last Date - Skeeter Davis  My Last Date
TTITLE15=Skeeter Davis - No Tears In Heaven
TTITLE16=Skeeter Davis - Something Precious(2)
TTITLE17=Skeeter Davis - The End Of The World
TTITLE18=Skeeter Davis - The Hand You're Holding Now
TTITLE19=Skeeter Davis - Wishful Thinking
TTITLE20=Skeeter Davis - Bobby Bare - Let It Be Me (Je t'appartiens)
TTITLE21=Skeeter Davis I can't help you i'm falling too - Skeeter Davis I can't help you i'm falling too
TTITLE22=Skeeter Davis I will follow him - Skeeter Davis I will follow him
EXTD=
EXTT0=
EXTT1=
EXTT2=
EXTT3=
EXTT4=
EXTT5=
EXTT6=
EXTT7=
EXTT8=
EXTT9=
EXTT10=
EXTT11=
EXTT12=
EXTT13=
EXTT14=
EXTT15=
EXTT16=
EXTT17=
EXTT18=
EXTT19=
EXTT20=
EXTT21=
EXTT22=
PLAYORDER=
